<mxfile host="Electron" agent="Mozilla/5.0 (Macintosh; Intel Mac OS X 10_15_7) AppleWebKit/537.36 (KHTML, like Gecko) draw.io/25.0.2 Chrome/128.0.6613.186 Electron/32.2.5 Safari/537.36" version="25.0.2">
  <diagram name="Page-1" id="srzabb6JrwGZ0LaROR4p">
    <mxGraphModel dx="955" dy="716" grid="1" gridSize="10" guides="1" tooltips="1" connect="1" arrows="1" fold="1" page="0" pageScale="1" pageWidth="1169" pageHeight="827" math="0" shadow="0">
      <root>
        <mxCell id="0" />
        <mxCell id="1" parent="0" />
        <mxCell id="2In_bztW5hSoD9WE6XqD-6" value="Package &amp;lt;&amp;lt;profile&amp;gt;&amp;gt; SmartDevice" style="shape=folder;fontStyle=1;tabWidth=240;tabHeight=20;tabPosition=left;html=1;boundedLbl=1;labelInHeader=1;container=1;collapsible=0;whiteSpace=wrap;" vertex="1" parent="1">
          <mxGeometry x="440" y="530" width="980" height="410" as="geometry" />
        </mxCell>
        <mxCell id="2In_bztW5hSoD9WE6XqD-7" value="" style="html=1;strokeColor=none;resizeWidth=1;resizeHeight=1;fillColor=none;part=1;connectable=0;allowArrows=0;deletable=0;whiteSpace=wrap;" vertex="1" parent="2In_bztW5hSoD9WE6XqD-6">
          <mxGeometry width="980.0000000000002" height="287" relative="1" as="geometry">
            <mxPoint y="30" as="offset" />
          </mxGeometry>
        </mxCell>
        <mxCell id="-u-DEzVlvWZdi5Z7Mjhq-61" value="&amp;lt;&amp;lt;metaclass&amp;gt;&amp;gt;&lt;br&gt;Device" style="shape=rect;html=1;whiteSpace=wrap;align=center;" vertex="1" parent="2In_bztW5hSoD9WE6XqD-6">
          <mxGeometry x="260" y="190" width="160" height="80" as="geometry" />
        </mxCell>
        <mxCell id="-u-DEzVlvWZdi5Z7Mjhq-71" style="edgeStyle=none;curved=1;rounded=0;orthogonalLoop=1;jettySize=auto;html=1;fontSize=12;startSize=8;endSize=8;endArrow=block;endFill=1;" edge="1" parent="2In_bztW5hSoD9WE6XqD-6" source="-u-DEzVlvWZdi5Z7Mjhq-62" target="-u-DEzVlvWZdi5Z7Mjhq-61">
          <mxGeometry relative="1" as="geometry" />
        </mxCell>
        <mxCell id="-u-DEzVlvWZdi5Z7Mjhq-62" value="&amp;lt;&amp;lt;stereotype&amp;gt;&amp;gt;&lt;br&gt;Tablet" style="shape=rect;html=1;whiteSpace=wrap;align=center;" vertex="1" parent="2In_bztW5hSoD9WE6XqD-6">
          <mxGeometry x="30" y="190" width="160" height="80" as="geometry" />
        </mxCell>
        <mxCell id="-u-DEzVlvWZdi5Z7Mjhq-72" style="edgeStyle=none;curved=1;rounded=0;orthogonalLoop=1;jettySize=auto;html=1;fontSize=12;startSize=8;endSize=8;endArrow=block;endFill=1;" edge="1" parent="2In_bztW5hSoD9WE6XqD-6" source="-u-DEzVlvWZdi5Z7Mjhq-63" target="-u-DEzVlvWZdi5Z7Mjhq-61">
          <mxGeometry relative="1" as="geometry" />
        </mxCell>
        <mxCell id="-u-DEzVlvWZdi5Z7Mjhq-63" value="&amp;lt;&amp;lt;stereotype&amp;gt;&amp;gt;&lt;br&gt;Phone" style="shape=rect;html=1;whiteSpace=wrap;align=center;" vertex="1" parent="2In_bztW5hSoD9WE6XqD-6">
          <mxGeometry x="30" y="290" width="160" height="80" as="geometry" />
        </mxCell>
        <mxCell id="-u-DEzVlvWZdi5Z7Mjhq-70" style="edgeStyle=none;curved=1;rounded=0;orthogonalLoop=1;jettySize=auto;html=1;fontSize=12;startSize=8;endSize=8;endArrow=block;endFill=1;" edge="1" parent="2In_bztW5hSoD9WE6XqD-6" source="-u-DEzVlvWZdi5Z7Mjhq-64" target="-u-DEzVlvWZdi5Z7Mjhq-61">
          <mxGeometry relative="1" as="geometry" />
        </mxCell>
        <mxCell id="-u-DEzVlvWZdi5Z7Mjhq-64" value="&amp;lt;&amp;lt;stereotype&amp;gt;&amp;gt;&lt;br&gt;Watch" style="shape=rect;html=1;whiteSpace=wrap;align=center;" vertex="1" parent="2In_bztW5hSoD9WE6XqD-6">
          <mxGeometry x="30" y="90" width="160" height="80" as="geometry" />
        </mxCell>
        <mxCell id="-u-DEzVlvWZdi5Z7Mjhq-65" value="&amp;lt;&amp;lt;metaclass&amp;gt;&amp;gt;&lt;br&gt;ReqComponent" style="shape=rect;html=1;whiteSpace=wrap;align=center;" vertex="1" parent="2In_bztW5hSoD9WE6XqD-6">
          <mxGeometry x="580" y="130" width="160" height="80" as="geometry" />
        </mxCell>
        <mxCell id="-u-DEzVlvWZdi5Z7Mjhq-69" style="edgeStyle=none;curved=1;rounded=0;orthogonalLoop=1;jettySize=auto;html=1;fontSize=12;startSize=8;endSize=8;endArrow=block;endFill=1;" edge="1" parent="2In_bztW5hSoD9WE6XqD-6" source="-u-DEzVlvWZdi5Z7Mjhq-66" target="-u-DEzVlvWZdi5Z7Mjhq-65">
          <mxGeometry relative="1" as="geometry" />
        </mxCell>
        <mxCell id="-u-DEzVlvWZdi5Z7Mjhq-66" value="&amp;lt;&amp;lt;stereotype&amp;gt;&amp;gt;&lt;br&gt;Clock" style="shape=rect;html=1;whiteSpace=wrap;align=center;" vertex="1" parent="2In_bztW5hSoD9WE6XqD-6">
          <mxGeometry x="790" y="160" width="160" height="80" as="geometry" />
        </mxCell>
        <mxCell id="-u-DEzVlvWZdi5Z7Mjhq-68" value="{required}" style="html=1;verticalAlign=bottom;labelBackgroundColor=none;endArrow=block;endFill=1;endSize=6;align=left;rounded=0;fontSize=12;curved=1;" edge="1" parent="2In_bztW5hSoD9WE6XqD-6" source="-u-DEzVlvWZdi5Z7Mjhq-65" target="-u-DEzVlvWZdi5Z7Mjhq-61">
          <mxGeometry x="-0.1434" y="-8" relative="1" as="geometry">
            <mxPoint x="410" y="429.33000000000004" as="sourcePoint" />
            <mxPoint x="570" y="429.33000000000004" as="targetPoint" />
            <mxPoint as="offset" />
          </mxGeometry>
        </mxCell>
        <mxCell id="-u-DEzVlvWZdi5Z7Mjhq-76" style="edgeStyle=none;curved=1;rounded=0;orthogonalLoop=1;jettySize=auto;html=1;fontSize=12;startSize=8;endSize=8;" edge="1" parent="2In_bztW5hSoD9WE6XqD-6" source="-u-DEzVlvWZdi5Z7Mjhq-73" target="-u-DEzVlvWZdi5Z7Mjhq-61">
          <mxGeometry relative="1" as="geometry" />
        </mxCell>
        <mxCell id="-u-DEzVlvWZdi5Z7Mjhq-73" value="&amp;lt;&amp;lt;metaclass&amp;gt;&amp;gt;&lt;br&gt;OptComponent" style="shape=rect;html=1;whiteSpace=wrap;align=center;" vertex="1" parent="2In_bztW5hSoD9WE6XqD-6">
          <mxGeometry x="580" y="230" width="160" height="80" as="geometry" />
        </mxCell>
        <mxCell id="-u-DEzVlvWZdi5Z7Mjhq-74" value="&amp;lt;&amp;lt;stereotype&amp;gt;&amp;gt;&lt;br&gt;Camera" style="shape=rect;html=1;whiteSpace=wrap;align=center;" vertex="1" parent="2In_bztW5hSoD9WE6XqD-6">
          <mxGeometry x="790" y="260" width="160" height="80" as="geometry" />
        </mxCell>
        <mxCell id="-u-DEzVlvWZdi5Z7Mjhq-75" style="edgeStyle=none;curved=1;rounded=0;orthogonalLoop=1;jettySize=auto;html=1;fontSize=12;startSize=8;endSize=8;endArrow=block;endFill=1;" edge="1" parent="2In_bztW5hSoD9WE6XqD-6" source="-u-DEzVlvWZdi5Z7Mjhq-74" target="-u-DEzVlvWZdi5Z7Mjhq-73">
          <mxGeometry relative="1" as="geometry">
            <mxPoint x="800" y="180" as="sourcePoint" />
            <mxPoint x="750" y="180" as="targetPoint" />
          </mxGeometry>
        </mxCell>
        <mxCell id="-u-DEzVlvWZdi5Z7Mjhq-78" style="edgeStyle=none;curved=1;rounded=0;orthogonalLoop=1;jettySize=auto;html=1;fontSize=12;startSize=8;endSize=8;" edge="1" parent="2In_bztW5hSoD9WE6XqD-6" source="-u-DEzVlvWZdi5Z7Mjhq-77" target="-u-DEzVlvWZdi5Z7Mjhq-65">
          <mxGeometry relative="1" as="geometry" />
        </mxCell>
        <mxCell id="-u-DEzVlvWZdi5Z7Mjhq-77" value="&amp;lt;&amp;lt;stereotype&amp;gt;&amp;gt;&lt;br&gt;Speaker" style="shape=rect;html=1;whiteSpace=wrap;align=center;" vertex="1" parent="2In_bztW5hSoD9WE6XqD-6">
          <mxGeometry x="790" y="60" width="160" height="80" as="geometry" />
        </mxCell>
        <mxCell id="2In_bztW5hSoD9WE6XqD-2" value="Manufacturer" style="shape=folder;fontStyle=1;tabWidth=80;tabHeight=30;tabPosition=left;html=1;boundedLbl=1;whiteSpace=wrap;" vertex="1" parent="1">
          <mxGeometry x="865" y="400" width="150" height="80" as="geometry" />
        </mxCell>
        <mxCell id="2In_bztW5hSoD9WE6XqD-8" value="&amp;lt;&amp;lt;profile&amp;gt;&amp;gt;&lt;br&gt;Interface" style="shape=folder;tabWidth=80;tabHeight=20;tabPosition=left;html=1;whiteSpace=wrap;align=center;" vertex="1" parent="1">
          <mxGeometry x="1145" y="400" width="160" height="80" as="geometry" />
        </mxCell>
        <mxCell id="2In_bztW5hSoD9WE6XqD-9" value="&amp;lt;&amp;lt;profile&amp;gt;&amp;gt;&lt;br&gt;ChromeOS" style="shape=folder;tabWidth=80;tabHeight=20;tabPosition=left;html=1;whiteSpace=wrap;align=center;" vertex="1" parent="1">
          <mxGeometry x="555" y="400" width="160" height="80" as="geometry" />
        </mxCell>
        <mxCell id="2In_bztW5hSoD9WE6XqD-11" value="&amp;lt;&amp;lt;apply&amp;gt;&amp;gt;" style="edgeStyle=none;html=1;endArrow=open;endSize=12;dashed=1;verticalAlign=bottom;rounded=0;fontSize=12;curved=1;entryX=0.511;entryY=0.054;entryDx=0;entryDy=0;entryPerimeter=0;" edge="1" parent="1" source="2In_bztW5hSoD9WE6XqD-2" target="2In_bztW5hSoD9WE6XqD-6">
          <mxGeometry width="160" relative="1" as="geometry">
            <mxPoint x="890" y="590" as="sourcePoint" />
            <mxPoint x="1050" y="590" as="targetPoint" />
          </mxGeometry>
        </mxCell>
        <mxCell id="2In_bztW5hSoD9WE6XqD-12" value="&amp;lt;&amp;lt;apply&amp;gt;&amp;gt;" style="edgeStyle=none;html=1;endArrow=open;endSize=12;dashed=1;verticalAlign=bottom;rounded=0;fontSize=12;curved=1;" edge="1" parent="1" source="2In_bztW5hSoD9WE6XqD-2" target="2In_bztW5hSoD9WE6XqD-8">
          <mxGeometry width="160" relative="1" as="geometry">
            <mxPoint x="915" y="430" as="sourcePoint" />
            <mxPoint x="916" y="562" as="targetPoint" />
          </mxGeometry>
        </mxCell>
        <mxCell id="2In_bztW5hSoD9WE6XqD-13" value="&amp;lt;&amp;lt;apply&amp;gt;&amp;gt;" style="edgeStyle=none;html=1;endArrow=open;endSize=12;dashed=1;verticalAlign=bottom;rounded=0;fontSize=12;curved=1;" edge="1" parent="1" source="2In_bztW5hSoD9WE6XqD-2" target="2In_bztW5hSoD9WE6XqD-9">
          <mxGeometry width="160" relative="1" as="geometry">
            <mxPoint x="925" y="440" as="sourcePoint" />
            <mxPoint x="926" y="572" as="targetPoint" />
          </mxGeometry>
        </mxCell>
      </root>
    </mxGraphModel>
  </diagram>
</mxfile>
